<mxfile host="65bd71144e">
    <diagram id="h6O4bB-QtZaEt1iHtjM4" name="Page-1">
        <mxGraphModel dx="2224" dy="1143" grid="1" gridSize="10" guides="1" tooltips="1" connect="1" arrows="1" fold="1" page="0" pageScale="1" pageWidth="850" pageHeight="1100" math="0" shadow="0">
            <root>
                <mxCell id="0"/>
                <mxCell id="1" parent="0"/>
                <mxCell id="3" value="" style="rounded=1;whiteSpace=wrap;html=1;" vertex="1" parent="1">
                    <mxGeometry x="-90" y="-210" width="360" height="260" as="geometry"/>
                </mxCell>
                <mxCell id="4" value="Profile Page" style="rounded=0;whiteSpace=wrap;html=1;shadow=0;strokeWidth=3;" vertex="1" parent="1">
                    <mxGeometry x="50" y="-200" width="120" height="60" as="geometry"/>
                </mxCell>
                <mxCell id="5" value="NavBar&lt;br&gt;(Outlet in all routes)" style="rounded=0;whiteSpace=wrap;html=1;shadow=0;strokeWidth=1;" vertex="1" parent="1">
                    <mxGeometry x="-70" y="-200" width="110" height="60" as="geometry"/>
                </mxCell>
                <mxCell id="10" style="edgeStyle=none;html=1;exitX=0.5;exitY=1;exitDx=0;exitDy=0;entryX=0.5;entryY=0;entryDx=0;entryDy=0;" edge="1" parent="1" source="6" target="7">
                    <mxGeometry relative="1" as="geometry"/>
                </mxCell>
                <mxCell id="11" style="edgeStyle=none;html=1;exitX=0.5;exitY=1;exitDx=0;exitDy=0;entryX=0.5;entryY=0;entryDx=0;entryDy=0;" edge="1" parent="1" source="6" target="8">
                    <mxGeometry relative="1" as="geometry"/>
                </mxCell>
                <mxCell id="6" value="LessonList&amp;nbsp;" style="rounded=0;whiteSpace=wrap;html=1;shadow=0;strokeWidth=1;" vertex="1" parent="1">
                    <mxGeometry x="-40" y="-120" width="70" height="60" as="geometry"/>
                </mxCell>
                <mxCell id="7" value="LessonCard" style="rounded=0;whiteSpace=wrap;html=1;shadow=0;strokeWidth=1;" vertex="1" parent="1">
                    <mxGeometry x="-90" y="-40" width="70" height="60" as="geometry"/>
                </mxCell>
                <mxCell id="8" value="LessonCard" style="rounded=0;whiteSpace=wrap;html=1;shadow=0;strokeWidth=1;" vertex="1" parent="1">
                    <mxGeometry y="-40" width="70" height="60" as="geometry"/>
                </mxCell>
                <mxCell id="16" style="edgeStyle=none;html=1;exitX=0.5;exitY=1;exitDx=0;exitDy=0;entryX=0.5;entryY=0;entryDx=0;entryDy=0;" edge="1" parent="1" source="13" target="15">
                    <mxGeometry relative="1" as="geometry"/>
                </mxCell>
                <mxCell id="17" style="edgeStyle=none;html=1;exitX=0.5;exitY=1;exitDx=0;exitDy=0;entryX=0.5;entryY=0;entryDx=0;entryDy=0;" edge="1" parent="1" source="13" target="14">
                    <mxGeometry relative="1" as="geometry"/>
                </mxCell>
                <mxCell id="13" value="ReadingsList" style="rounded=0;whiteSpace=wrap;html=1;shadow=0;strokeWidth=1;" vertex="1" parent="1">
                    <mxGeometry x="130" y="-120" width="70" height="60" as="geometry"/>
                </mxCell>
                <mxCell id="14" value="ReadingCard" style="rounded=0;whiteSpace=wrap;html=1;shadow=0;strokeWidth=1;" vertex="1" parent="1">
                    <mxGeometry x="180" y="-40" width="70" height="60" as="geometry"/>
                </mxCell>
                <mxCell id="15" value="ReadingCard" style="rounded=0;whiteSpace=wrap;html=1;shadow=0;strokeWidth=1;" vertex="1" parent="1">
                    <mxGeometry x="90" y="-40" width="70" height="60" as="geometry"/>
                </mxCell>
                <mxCell id="18" value="" style="rounded=1;whiteSpace=wrap;html=1;" vertex="1" parent="1">
                    <mxGeometry x="-440" y="70" width="360" height="260" as="geometry"/>
                </mxCell>
                <mxCell id="19" value="Deck Page" style="rounded=0;whiteSpace=wrap;html=1;shadow=0;strokeWidth=3;" vertex="1" parent="1">
                    <mxGeometry x="-320" y="80" width="120" height="60" as="geometry"/>
                </mxCell>
                <mxCell id="22" value="Tarot Card" style="rounded=0;whiteSpace=wrap;html=1;shadow=0;strokeWidth=1;" vertex="1" parent="1">
                    <mxGeometry x="-410" y="230" width="60" height="87.5" as="geometry"/>
                </mxCell>
                <mxCell id="24" value="Tarot Card" style="rounded=0;whiteSpace=wrap;html=1;shadow=0;strokeWidth=1;" vertex="1" parent="1">
                    <mxGeometry x="-330" y="230" width="60" height="87.5" as="geometry"/>
                </mxCell>
                <mxCell id="25" value="Tarot Card" style="rounded=0;whiteSpace=wrap;html=1;shadow=0;strokeWidth=1;" vertex="1" parent="1">
                    <mxGeometry x="-250" y="230" width="60" height="87.5" as="geometry"/>
                </mxCell>
                <mxCell id="26" value="Tarot Card" style="rounded=0;whiteSpace=wrap;html=1;shadow=0;strokeWidth=1;" vertex="1" parent="1">
                    <mxGeometry x="-170" y="230" width="60" height="87.5" as="geometry"/>
                </mxCell>
                <mxCell id="28" value="Tarot Card" style="rounded=0;whiteSpace=wrap;html=1;shadow=0;strokeWidth=1;" vertex="1" parent="1">
                    <mxGeometry x="-410" y="140" width="60" height="87.5" as="geometry"/>
                </mxCell>
                <mxCell id="29" value="Tarot Card" style="rounded=0;whiteSpace=wrap;html=1;shadow=0;strokeWidth=1;" vertex="1" parent="1">
                    <mxGeometry x="-330" y="140" width="60" height="87.5" as="geometry"/>
                </mxCell>
                <mxCell id="30" value="Tarot Card" style="rounded=0;whiteSpace=wrap;html=1;shadow=0;strokeWidth=1;" vertex="1" parent="1">
                    <mxGeometry x="-250" y="140" width="60" height="87.5" as="geometry"/>
                </mxCell>
                <mxCell id="31" value="Tarot Card" style="rounded=0;whiteSpace=wrap;html=1;shadow=0;strokeWidth=1;" vertex="1" parent="1">
                    <mxGeometry x="-170" y="140" width="60" height="87.5" as="geometry"/>
                </mxCell>
                <mxCell id="27" value="PopupCardDetail" style="whiteSpace=wrap;html=1;aspect=fixed;shadow=0;strokeWidth=1;opacity=80;" vertex="1" parent="1">
                    <mxGeometry x="-280" y="140" width="120" height="120" as="geometry"/>
                </mxCell>
                <mxCell id="33" value="" style="rounded=1;whiteSpace=wrap;html=1;" vertex="1" parent="1">
                    <mxGeometry x="-70" y="70" width="300" height="260" as="geometry"/>
                </mxCell>
                <mxCell id="34" value="Reading Page" style="rounded=0;whiteSpace=wrap;html=1;shadow=0;strokeWidth=3;" vertex="1" parent="1">
                    <mxGeometry x="20" y="80" width="120" height="60" as="geometry"/>
                </mxCell>
                <mxCell id="36" value="Tarot Card" style="rounded=0;whiteSpace=wrap;html=1;shadow=0;strokeWidth=1;" vertex="1" parent="1">
                    <mxGeometry x="-60" y="156.25" width="60" height="87.5" as="geometry"/>
                </mxCell>
                <mxCell id="37" value="Tarot Card" style="rounded=0;whiteSpace=wrap;html=1;shadow=0;strokeWidth=1;" vertex="1" parent="1">
                    <mxGeometry x="50" y="156.25" width="60" height="87.5" as="geometry"/>
                </mxCell>
                <mxCell id="38" value="Tarot Card" style="rounded=0;whiteSpace=wrap;html=1;shadow=0;strokeWidth=1;" vertex="1" parent="1">
                    <mxGeometry x="160" y="156.25" width="60" height="87.5" as="geometry"/>
                </mxCell>
                <mxCell id="39" value="" style="rounded=1;whiteSpace=wrap;html=1;" vertex="1" parent="1">
                    <mxGeometry x="280" y="-210" width="210" height="260" as="geometry"/>
                </mxCell>
                <mxCell id="40" value="Lesson List Page" style="rounded=0;whiteSpace=wrap;html=1;shadow=0;strokeWidth=3;" vertex="1" parent="1">
                    <mxGeometry x="330" y="-190" width="120" height="60" as="geometry"/>
                </mxCell>
                <mxCell id="44" style="edgeStyle=none;html=1;entryX=0.5;entryY=0;entryDx=0;entryDy=0;" edge="1" parent="1" source="41" target="42">
                    <mxGeometry relative="1" as="geometry"/>
                </mxCell>
                <mxCell id="66" style="edgeStyle=none;html=1;entryX=0.5;entryY=0;entryDx=0;entryDy=0;" edge="1" parent="1" source="41" target="43">
                    <mxGeometry relative="1" as="geometry"/>
                </mxCell>
                <mxCell id="41" value="LessonList&amp;nbsp;" style="rounded=0;whiteSpace=wrap;html=1;shadow=0;strokeWidth=1;" vertex="1" parent="1">
                    <mxGeometry x="360" y="-123.75" width="70" height="50" as="geometry"/>
                </mxCell>
                <mxCell id="42" value="LessonCard" style="rounded=0;whiteSpace=wrap;html=1;shadow=0;strokeWidth=1;" vertex="1" parent="1">
                    <mxGeometry x="310" y="-43.75" width="70" height="60" as="geometry"/>
                </mxCell>
                <mxCell id="43" value="LessonCard" style="rounded=0;whiteSpace=wrap;html=1;shadow=0;strokeWidth=1;" vertex="1" parent="1">
                    <mxGeometry x="400" y="-43.75" width="70" height="60" as="geometry"/>
                </mxCell>
                <mxCell id="47" value="" style="rounded=1;whiteSpace=wrap;html=1;" vertex="1" parent="1">
                    <mxGeometry x="240" y="70" width="370" height="280" as="geometry"/>
                </mxCell>
                <mxCell id="48" value="Lesson Page" style="rounded=0;whiteSpace=wrap;html=1;shadow=0;strokeWidth=3;" vertex="1" parent="1">
                    <mxGeometry x="365" y="80" width="120" height="60" as="geometry"/>
                </mxCell>
                <mxCell id="54" value="Tarot Card" style="rounded=0;whiteSpace=wrap;html=1;shadow=0;strokeWidth=1;" vertex="1" parent="1">
                    <mxGeometry x="395" y="156.25" width="60" height="87.5" as="geometry"/>
                </mxCell>
                <mxCell id="55" value="AnswerButton" style="rounded=0;whiteSpace=wrap;html=1;shadow=0;strokeWidth=1;" vertex="1" parent="1">
                    <mxGeometry x="265" y="260" width="80" height="60" as="geometry"/>
                </mxCell>
                <mxCell id="56" value="AnswerButton" style="rounded=0;whiteSpace=wrap;html=1;shadow=0;strokeWidth=1;" vertex="1" parent="1">
                    <mxGeometry x="505" y="260" width="80" height="60" as="geometry"/>
                </mxCell>
                <mxCell id="57" value="AnswerButton" style="rounded=0;whiteSpace=wrap;html=1;shadow=0;strokeWidth=1;" vertex="1" parent="1">
                    <mxGeometry x="345" y="260" width="80" height="60" as="geometry"/>
                </mxCell>
                <mxCell id="58" value="AnswerButton" style="rounded=0;whiteSpace=wrap;html=1;shadow=0;strokeWidth=1;" vertex="1" parent="1">
                    <mxGeometry x="425" y="260" width="80" height="60" as="geometry"/>
                </mxCell>
                <mxCell id="63" style="edgeStyle=none;html=1;exitX=0.5;exitY=1;exitDx=0;exitDy=0;entryX=0.5;entryY=0;entryDx=0;entryDy=0;dashed=1;" edge="1" parent="1" source="43" target="48">
                    <mxGeometry relative="1" as="geometry"/>
                </mxCell>
                <mxCell id="64" value="" style="rounded=1;whiteSpace=wrap;html=1;shadow=0;strokeWidth=1;" vertex="1" parent="1">
                    <mxGeometry x="-365" y="-175" width="190" height="190" as="geometry"/>
                </mxCell>
                <mxCell id="65" value="Login/Signup Page" style="rounded=0;whiteSpace=wrap;html=1;shadow=0;strokeWidth=3;" vertex="1" parent="1">
                    <mxGeometry x="-330" y="-165" width="120" height="60" as="geometry"/>
                </mxCell>
                <mxCell id="67" style="edgeStyle=none;html=1;exitX=0.5;exitY=1;exitDx=0;exitDy=0;dashed=1;" edge="1" parent="1" source="3" target="34">
                    <mxGeometry relative="1" as="geometry"/>
                </mxCell>
                <mxCell id="68" style="edgeStyle=none;html=1;exitX=1;exitY=0.5;exitDx=0;exitDy=0;entryX=0;entryY=0.5;entryDx=0;entryDy=0;dashed=1;" edge="1" parent="1" source="3" target="40">
                    <mxGeometry relative="1" as="geometry"/>
                </mxCell>
                <mxCell id="70" style="edgeStyle=none;html=1;exitX=0;exitY=0.5;exitDx=0;exitDy=0;entryX=0.5;entryY=0;entryDx=0;entryDy=0;dashed=1;" edge="1" parent="1" source="7" target="19">
                    <mxGeometry relative="1" as="geometry"/>
                </mxCell>
                <mxCell id="71" value="LoginSignupForm" style="rounded=1;whiteSpace=wrap;html=1;shadow=0;strokeWidth=1;" vertex="1" parent="1">
                    <mxGeometry x="-330" y="-90" width="120" height="60" as="geometry"/>
                </mxCell>
                <mxCell id="72" style="edgeStyle=none;html=1;dashed=1;entryX=0;entryY=1;entryDx=0;entryDy=0;" edge="1" parent="1" source="64" target="4">
                    <mxGeometry relative="1" as="geometry"/>
                </mxCell>
            </root>
        </mxGraphModel>
    </diagram>
</mxfile>